<svg width="19" height="14" viewBox="0 0 19 14" fill="none" xmlns="http://www.w3.org/2000/svg">
<path d="M15.6723 7.31494C16.5454 7.39473 18.9253 7.23936 18.8582 8.95278C18.6531 8.96544 18.4485 8.92189 18.2663 8.8268C18.2663 8.8268 18.1614 7.8021 15.6094 7.71391C13.0573 7.62571 15.6723 7.31494 15.6723 7.31494Z" fill="#381510"/>
<path d="M15.4164 3.67392C12.8979 5.3999 7.46642 7.6802 3.3907 2.35107C0.972965 3.7285 1.82085 12.0687 1.82085 12.0687C1.82085 12.0687 8.64171 3.0734 14.3628 10.1873C15.6556 7.50804 15.4164 3.67392 15.4164 3.67392Z" fill="#BFC67D"/>
<path d="M14.8156 1.51123C16.3812 1.48184 17.1326 4.08549 16.2847 6.47496C15.4368 8.86444 16.801 11.1153 14.4756 11.867C12.1502 12.6187 14.165 10.9306 13.3129 10.792C14.0936 9.86392 14.0642 8.89385 13.8292 7.59203C14.3077 6.99571 15.4452 5.49229 14.9751 3.9763C15.1766 3.39258 15.3571 2.28393 14.8156 1.51123Z" fill="#C6341C"/>
<path d="M0.586199 5.45043C0.22102 5.74021 -0.0434164 6.9917 0.288183 7.29827C0.619782 7.60484 1.78247 6.8783 1.60198 6.18957C1.42149 5.50083 0.984958 5.13546 0.586199 5.45043Z" fill="#381510"/>
<path d="M2.58031 13.3328C1.22034 13.1438 -0.836411 9.48606 0.359861 6.56743C0.166778 3.29185 0.200355 1.28451 2.53413 0.268244C4.86791 -0.748026 5.8921 1.4105 4.74619 1.97743C3.60029 2.54435 2.66845 3.25825 2.50895 4.00995C2.11859 5.84092 2.81536 6.60523 3.49115 7.95745C2.78598 9.21729 2.5971 11.0525 3.43239 12.3627C3.56671 13.6729 2.58031 13.3328 2.58031 13.3328Z" fill="#C6341C"/>
<path d="M9.19126 7.28138C9.14929 7.60899 8.0956 7.41997 8.43563 7.15956C8.77566 6.89915 9.21225 7.09237 9.19126 7.28138Z" fill="#381510"/>
<path d="M7.76836 5.73567C7.26054 5.71047 7.34868 5.1309 7.83132 5.3577C8.31396 5.58449 8.23841 5.77347 7.76836 5.73567Z" fill="#381510"/>
<path d="M7.37772 6.79419C7.06292 6.79419 7.1007 7.05873 7.54981 7.04194C7.99892 7.02514 7.72189 6.81518 7.37772 6.79419Z" fill="#381510"/>
<path d="M7.05049 7.63425C6.6853 7.76024 6.37887 7.49988 6.90777 7.36129C7.43668 7.2227 7.41569 7.50826 7.05049 7.63425Z" fill="#381510"/>
<path d="M8.75459 6.23575C8.46494 6.14335 8.09973 5.81576 8.5615 5.87035C9.02326 5.92495 9.07363 6.33655 8.75459 6.23575Z" fill="#381510"/>
</svg>
