<svg width="70" height="47" viewBox="0 0 70 47" fill="none" xmlns="http://www.w3.org/2000/svg">
<path d="M9.18848 33.8014L52.2374 36.4177L48.1491 8.75586L9.18848 7.42041V33.8014Z" fill="#CEA88E"/>
<path d="M9.18824 33.8015L52.2373 36.4178L54.4326 46.9626L0 43.2083L9.18824 33.8015Z" fill="#BA9175"/>
<path d="M55.1544 16.3401L52.2372 36.4178L48.1489 8.75588L52.6989 0L55.1544 16.3401Z" fill="#A07A60"/>
<path d="M55.1546 16.3401L52.2373 36.4177L69.9969 34.8303L63.6713 16.3401H55.1546Z" fill="#BA9175"/>
<path d="M13.8602 0L9.18848 7.42042L48.1491 8.75588L52.6991 0H13.8602Z" fill="#BA9175"/>
<path opacity="0.5" d="M11.4048 6.00947L27.9385 3.48142L14.9432 0.667725L29.6007 3.3386L50.6047 0.667725L30.1758 3.77116L46.6339 7.42049L29.0215 4.04413L11.4048 6.00947Z" fill="#282828"/>
</svg>
