<svg width="714" height="363" viewBox="0 0 714 363" fill="none" xmlns="http://www.w3.org/2000/svg">
<path d="M417.598 104.363H7.12695V362.909H417.598V104.363Z" fill="#6EA7CE"/>
<g style="mix-blend-mode:multiply" opacity="0.3">
<path d="M417.598 104.363H288.651V362.909H417.598V104.363Z" fill="#365E99"/>
</g>
<path d="M346.351 181.185H312.411V215.112H346.351V181.185Z" fill="#183658"/>
<path d="M346.351 250.302H312.411V284.229H346.351V250.302Z" fill="#183658"/>
<path d="M397.14 181.185H363.2V215.112H397.14V181.185Z" fill="#183658"/>
<path d="M16.3735 53.0737H12.127V122.743H16.3735V53.0737Z" fill="#183658"/>
<path d="M251.282 53.0737H247.035V122.743H251.282V53.0737Z" fill="#183658"/>
<path d="M50.8139 53.0737H46.5674V122.743H50.8139V53.0737Z" fill="#183658"/>
<path d="M84.8603 53.0737H80.6138V122.743H84.8603V53.0737Z" fill="#183658"/>
<path d="M118.896 53.0737H114.65V122.743H118.896V53.0737Z" fill="#183658"/>
<path d="M152.943 53.0737H148.696V122.743H152.943V53.0737Z" fill="#183658"/>
<path d="M186.979 53.0737H182.732V122.743H186.979V53.0737Z" fill="#183658"/>
<path d="M221.026 53.0737H216.779V122.743H221.026V53.0737Z" fill="#183658"/>
<path d="M251.282 57.3187V53.0737L12.1275 53.0737V57.3187L251.282 57.3187Z" fill="#183658"/>
<path d="M425.805 104.363H-1.08984V124.473H425.805V104.363Z" fill="#BAE1F4"/>
<path d="M701.003 0.998047H402.003V362.998H701.003V0.998047Z" fill="#6EA7CE"/>
<path d="M473.828 46.1702H446.992V94.1845H473.828V46.1702Z" fill="#183658"/>
<path d="M540.919 46.1702H514.083V94.1845H540.919V46.1702Z" fill="#183658"/>
<path d="M612.248 46.1702H585.411V94.1845H612.248V46.1702Z" fill="#183658"/>
<path d="M540.919 128.783H514.083V178.209H540.919V128.783Z" fill="#183658"/>
<path d="M541.003 210.998H514.003V260.998H541.003V210.998Z" fill="#183658"/>
<path d="M473.828 128.783H446.992V178.209H473.828V128.783Z" fill="#183658"/>
<path d="M473.828 211.396H446.992V260.822H473.828V211.396Z" fill="#183658"/>
<path d="M612.248 128.783H585.411V178.209H612.248V128.783Z" fill="#183658"/>
<path d="M612.248 211.396H585.411V260.822H612.248V211.396Z" fill="#183658"/>
<g style="mix-blend-mode:multiply" opacity="0.3">
<path d="M653.003 362.998H701.003V0.998047H653.003V362.998Z" fill="#365E99"/>
</g>
<path d="M713.943 0.97998H389.081V12.9836H713.943V0.97998Z" fill="#183658"/>
</svg>
