<svg width="731" height="453" viewBox="0 0 731 453" fill="none" xmlns="http://www.w3.org/2000/svg">
<path d="M59.4197 0.0297852H37.0192H14.6187L0 381.72H37.0192H74.0385L59.4197 0.0297852Z" fill="#6EA7CE"/>
<path d="M10.1602 116.35H63.8788L62.9446 92.1228H11.0944L10.1602 116.35Z" fill="#BAE1F4"/>
<path d="M12.251 61.8247H61.7868L60.8632 37.5972H13.1746L12.251 61.8247Z" fill="#BAE1F4"/>
<path d="M713.904 261.279L712.612 254.21C701.753 194.154 696.318 133.244 696.374 72.2156V41.2493H584.756V72.2156C584.814 133.244 579.381 194.153 568.524 254.21L567.232 261.279C555.814 324.41 550.101 388.438 550.161 452.59V452.902H730.953V452.59C731.017 388.439 725.311 324.411 713.904 261.279Z" fill="#4D7DB5"/>
</svg>
