<svg width="54" height="332" viewBox="0 0 54 332" fill="none" xmlns="http://www.w3.org/2000/svg">
<path d="M32.8936 332C37.896 332 37.896 332 41.3724 332L41.7493 124.546H32.8936V332Z" fill="#355389"/>
<path d="M39.5483 0H37.2713C29.5502 0 23.291 6.26357 23.291 13.9901V116.997C23.291 124.723 29.5502 130.987 37.2713 130.987H39.5483C47.2694 130.987 53.5287 124.723 53.5287 116.997V13.9901C53.5287 6.26357 47.2694 0 39.5483 0Z" fill="#466EB6"/>
<path d="M36.2055 0H33.9286C26.2074 0 19.9482 6.26357 19.9482 13.9901V116.997C19.9482 124.723 26.2074 130.987 33.9286 130.987H36.2055C43.9267 130.987 50.1859 124.723 50.1859 116.997V13.9901C50.1859 6.26357 43.9267 0 36.2055 0Z" fill="#355389"/>
<path d="M0.958984 16.396C0.958984 16.396 5.63733 28.3293 17.6565 33.7947C29.6757 39.2601 23.3367 8.81009 23.3367 8.81009L9.52632 8.25415C9.52632 8.25415 2.07316 11.1524 0.958984 16.396Z" fill="#355389"/>
<path d="M28.1913 41.2654C35.1731 41.2654 40.8329 33.8253 40.8329 24.6475C40.8329 15.4696 35.1731 8.02954 28.1913 8.02954C21.2096 8.02954 15.5498 15.4696 15.5498 24.6475C15.5498 33.8253 21.2096 41.2654 28.1913 41.2654Z" fill="#F47458"/>
<path d="M34.0052 9.89478C36.097 12.8599 37.3781 16.8275 37.3781 21.1901C37.3781 30.3679 31.7192 37.808 24.7366 37.808C22.6541 37.7928 20.6259 37.1421 18.9229 35.9427C21.2301 39.2146 24.5271 41.2653 28.1914 41.2653C35.174 41.2653 40.8299 33.8252 40.8299 24.6474C40.8299 18.228 38.0612 12.6624 34.0052 9.89478Z" fill="#B75742"/>
<path d="M0.958984 56.5434C0.958984 56.5434 5.63733 68.4767 17.6565 73.9421C29.6757 79.4074 23.3367 48.9605 23.3367 48.9605L9.52632 48.4045C9.52632 48.4045 2.07316 51.3028 0.958984 56.5434Z" fill="#355389"/>
<path d="M28.1913 81.4158C35.1731 81.4158 40.8329 73.9757 40.8329 64.7979C40.8329 55.62 35.1731 48.1799 28.1913 48.1799C21.2096 48.1799 15.5498 55.62 15.5498 64.7979C15.5498 73.9757 21.2096 81.4158 28.1913 81.4158Z" fill="#F7CC7F"/>
<path d="M34.0052 50.0452C36.097 53.0103 37.3781 56.9779 37.3781 61.3405C37.3781 70.5183 31.7192 77.9584 24.7366 77.9584C22.6544 77.9417 20.6266 77.2911 18.9229 76.0931C21.2301 79.365 24.5271 81.4157 28.1914 81.4157C35.174 81.4157 40.8299 73.9756 40.8299 64.7978C40.8299 58.3784 38.0612 52.8128 34.0052 50.0452Z" fill="#F2B95F"/>
<path d="M0.958984 96.6939C0.958984 96.6939 5.63733 108.627 17.6565 114.093C29.6757 119.558 23.3367 89.111 23.3367 89.111L9.52632 88.552C9.52632 88.552 2.07316 91.4533 0.958984 96.6939Z" fill="#355389"/>
<path d="M28.1913 121.563C35.1731 121.563 40.8329 114.123 40.8329 104.945C40.8329 95.7672 35.1731 88.3271 28.1913 88.3271C21.2096 88.3271 15.5498 95.7672 15.5498 104.945C15.5498 114.123 21.2096 121.563 28.1913 121.563Z" fill="#50BFA5"/>
<path d="M34.0052 90.1926C36.097 93.1577 37.3781 97.1254 37.3781 101.491C37.3781 110.666 31.7192 118.106 24.7366 118.106C22.6547 118.09 20.6269 117.441 18.9229 116.244C21.2301 119.516 24.5271 121.563 28.1914 121.563C35.174 121.563 40.8299 114.123 40.8299 104.948C40.8299 98.5259 38.0612 92.9603 34.0052 90.1926Z" fill="#3C8F7C"/>
<path d="M0.958984 16.3962C0.958984 16.3962 2.51642 10.147 15.9928 9.92822C36.4883 9.591 41.276 36.5746 41.276 36.5746C41.276 36.5746 48.1826 14.6037 37.8241 7.80161C27.4655 0.999503 2.62874 3.12309 0.958984 16.3962Z" fill="#466EB6"/>
<path d="M0.958984 56.5433C0.958984 56.5433 2.51642 50.2972 15.9928 50.0754C36.4883 49.7412 41.276 76.7309 41.276 76.7309C41.276 76.7309 48.1826 54.76 37.8241 47.9579C27.4655 41.1558 2.62874 43.2733 0.958984 56.5433Z" fill="#466EB6"/>
<path d="M0.958984 96.6938C0.958984 96.6938 2.51642 90.4446 15.9928 90.2258C36.4883 89.8916 41.276 116.881 41.276 116.881C41.276 116.881 48.1826 94.9104 37.8241 88.1053C27.4655 81.3001 2.62874 83.4237 0.958984 96.6938Z" fill="#466EB6"/>
</svg>
