<svg width="655" height="174" viewBox="0 0 655 174" fill="none" xmlns="http://www.w3.org/2000/svg">
<path d="M654.396 173.146C654.396 173.146 659.608 127.645 619.884 118.216C580.161 108.786 601.351 81.4534 571.327 67.0263C541.302 52.5993 498.052 58.6802 487.46 92.791C476.867 126.902 444.215 95.8285 404.469 92.791C364.723 89.7534 353.765 111.184 346.897 122.665C340.028 134.147 285.287 141.023 259.688 109.95C234.089 78.8769 215.545 72.0294 187.295 71.8276C159.045 71.6259 150.11 28.9211 108.668 28.0796V171.751L654.396 173.146Z" fill="#82B378"/>
<path d="M0 12.278C0 12.278 80.9803 -14.5933 130.734 12.278C180.488 39.1493 172.227 79.0817 220.223 67.8536C268.219 56.6255 348.099 98.8461 317.985 173.149C317.985 173.149 0 172.088 0 173.149V12.278Z" fill="#A8D29F"/>
</svg>
