<svg width="1132" height="686" viewBox="0 0 1132 686" fill="none" xmlns="http://www.w3.org/2000/svg">
<path opacity="0.5" d="M396.44 -104.805C377.416 -94.236 360.875 -81.1587 345.434 -67.6291C339.093 -62.0553 332.638 -56.2411 323.985 -52.8183C316.725 -49.946 308.376 -48.9622 300.168 -48.7977C261.268 -48.0195 220.966 -64.3392 184.996 -53.2264C164.999 -47.0294 150.855 -33.3132 140.788 -18.9864C129.304 -2.62875 121.879 15.339 119.003 33.7054C114.314 63.6749 119.859 98.0509 92.2559 120.033C67.2082 139.981 20.981 143.318 5.34042 168.071C-5.45863 185.154 3.81853 204.134 14.5605 219.805C19.0564 226.366 23.7552 231.566 25.5751 238.785C26.2093 241.278 26.1776 263.101 30.1218 263.07C43.5366 262.965 50.1251 250.277 48.73 240.294C47.3349 230.31 41.6945 220.184 45.3914 210.527C50.2646 197.797 68.6952 191.547 82.9027 183.667C106.53 170.558 121.527 149.819 146.41 138.086C164.194 129.697 186.106 126.382 201.895 115.99C233.826 94.9698 227.234 55.6147 250.798 29.1122C255.202 24.1616 260.944 19.5652 268.421 17.5534C277.257 15.1809 286.997 16.7467 296.208 18.1038C333.724 23.6008 371.71 25.2174 409.56 22.9279C429.319 21.7353 449.591 19.309 466.446 11.4956C482.952 3.84028 494.687 -8.25951 507.965 -18.8725C545.616 -48.9464 598.59 -67.9834 653.47 -71.1626C681.419 -72.7853 710.151 -70.5046 737.034 -76.4517C756.556 -80.7633 775.288 -91.3415 783.024 -104.805H396.44Z" fill="#8B8B8B"/>
<path d="M59.4197 233.03H37.0192H14.6187L0 614.72H37.0192H74.0385L59.4197 233.03Z" fill="#6EA7CE"/>
<path d="M10.1597 349.35H63.8784L62.9441 325.123H11.0939L10.1597 349.35Z" fill="#BAE1F4"/>
<path d="M12.251 294.825H61.7868L60.8632 270.597H13.1746L12.251 294.825Z" fill="#BAE1F4"/>
<path opacity="0.5" d="M1131.11 -249.209C1100.97 -243.57 1070.5 -257.776 1039.81 -256.967C1006.23 -256.108 975.793 -237.396 951.617 -215.024C913.015 -179.299 886.22 -133.776 855.23 -91.7721C824.24 -49.7687 786.417 -9.36064 736.056 8.31027C705.888 18.8933 669.07 18.9603 646.733 41.1312C547.74 139.442 578.627 222.657 595.623 277.283C606.164 311.164 648.858 363.835 677.401 310.963C684.507 297.798 686.797 282.77 692.131 268.856C704.92 235.475 734.095 210.783 762.162 187.565C774.214 177.603 786.478 167.507 800.959 161.186C829.032 148.935 861.417 152.369 892.139 154.926C934.767 158.476 981.139 158.915 1015.95 135.076C1045.32 114.981 1060.64 81.4905 1077.61 50.9592C1094.57 20.4278 1096.25 -10.9621 1131.11 -19.9133V-249.209Z" fill="#8B8B8B"/>
<path d="M713.903 494.279L712.612 487.21C701.752 427.154 696.318 366.244 696.373 305.216V274.249H584.756V305.216C584.813 366.244 579.381 427.153 568.523 487.21L567.231 494.279C555.814 557.41 550.1 621.438 550.16 685.59V685.902H730.952V685.59C731.016 621.439 725.311 557.411 713.903 494.279Z" fill="#4D7DB5"/>
</svg>
