<svg width="162" height="70" viewBox="0 0 162 70" fill="none" xmlns="http://www.w3.org/2000/svg">
<path d="M135.535 30.3524H6.70063L0.742676 0.0629883H129.346L135.535 30.3524Z" fill="#D36D1A"/>
<path d="M137.735 30.3524H8.90132L2.94336 0.0629883H131.547L137.735 30.3524Z" fill="#F49540"/>
<path d="M6.69482 30.3525H44.7245V34.0588H9.51825C8.77096 34.0588 8.05428 33.7618 7.52587 33.2332C6.99745 32.7047 6.70059 31.9877 6.70059 31.2402V30.3525H6.69482Z" fill="#D36D1A"/>
<path d="M161.452 30.3525H44.4419V34.0588H161.452V30.3525Z" fill="#FFA255"/>
<path d="M14.3869 34.0586L12.1801 42.7045L5.62865 68.4461C5.58963 68.6107 5.49606 68.7572 5.3632 68.8619C5.23033 68.9665 5.06597 69.0231 4.89686 69.0225C4.74127 69.023 4.58748 68.9888 4.4467 68.9225C4.30593 68.8562 4.18173 68.7594 4.08299 68.6391C3.98425 68.5188 3.91346 68.3781 3.87585 68.227C3.83823 68.076 3.83466 67.9185 3.86544 67.766L9.69091 37.7936L10.4112 34.0701L14.3869 34.0586Z" fill="#FFA255"/>
<path d="M12.18 42.7505C12.3932 38.3124 9.71387 37.7994 9.71387 37.7994L10.4341 34.0759H14.3868L12.18 42.7505Z" fill="#D36D1A"/>
<path d="M42.3386 34.0586L40.1318 42.7045L33.5976 68.4057C33.5588 68.5694 33.4661 68.7152 33.3344 68.8197C33.2027 68.9243 33.0397 68.9815 32.8716 68.9821C32.7159 68.9824 32.5619 68.9482 32.421 68.882C32.28 68.8157 32.1555 68.7191 32.0563 68.5989C31.9572 68.4788 31.8858 68.3381 31.8474 68.1871C31.8091 68.0361 31.8046 67.8785 31.8344 67.7256L37.6598 37.7532L38.3859 34.0298L42.3386 34.0586Z" fill="#FFA255"/>
<path d="M40.1321 42.7505C40.3453 38.3124 37.6602 37.7994 37.6602 37.7994L38.3862 34.0759H42.3389L40.1321 42.7505Z" fill="#D36D1A"/>
<path d="M150.775 34.0586L152.982 42.7045L159.51 68.4057C159.549 68.5703 159.643 68.7169 159.776 68.8215C159.909 68.9262 160.073 68.9828 160.242 68.9821C160.398 68.9826 160.552 68.9485 160.692 68.8822C160.833 68.8159 160.957 68.7191 161.056 68.5988C161.155 68.4785 161.226 68.3377 161.263 68.1867C161.301 68.0357 161.304 67.8781 161.274 67.7255L155.448 37.7532L154.722 34.0298L150.775 34.0586Z" fill="#FFA255"/>
<path d="M152.982 42.7505C152.769 38.3124 155.448 37.7994 155.448 37.7994L154.722 34.0759H150.775L152.982 42.7505Z" fill="#D36D1A"/>
<path d="M122.823 34.0586L125.03 42.7045L131.564 68.4057C131.603 68.5694 131.696 68.7152 131.827 68.8197C131.959 68.9243 132.122 68.9815 132.29 68.9821C132.446 68.9824 132.6 68.9482 132.741 68.882C132.882 68.8157 133.006 68.7191 133.106 68.5989C133.205 68.4788 133.276 68.3381 133.314 68.1871C133.353 68.0361 133.357 67.8785 133.327 67.7256L127.502 37.7532L126.776 34.0298L122.823 34.0586Z" fill="#FFA255"/>
<path d="M125.03 42.7505C124.817 38.3124 127.502 37.7994 127.502 37.7994L126.776 34.0759H122.823L125.03 42.7505Z" fill="#D36D1A"/>
</svg>
