<svg width="54" height="332" viewBox="0 0 54 332" fill="none" xmlns="http://www.w3.org/2000/svg">
<path d="M32.8931 332C37.8955 332 37.8955 332 41.3719 332L41.7489 124.546H32.8931V332Z" fill="#355389"/>
<path d="M39.5478 0H37.2709C29.5497 0 23.2905 6.26357 23.2905 13.9901V116.997C23.2905 124.723 29.5497 130.987 37.2709 130.987H39.5478C47.2689 130.987 53.5282 124.723 53.5282 116.997V13.9901C53.5282 6.26357 47.2689 0 39.5478 0Z" fill="#466EB6"/>
<path d="M36.2055 0H33.9286C26.2074 0 19.9482 6.26357 19.9482 13.9901V116.997C19.9482 124.723 26.2074 130.987 33.9286 130.987H36.2055C43.9267 130.987 50.1859 124.723 50.1859 116.997V13.9901C50.1859 6.26357 43.9267 0 36.2055 0Z" fill="#355389"/>
<path d="M0.958496 16.396C0.958496 16.396 5.63684 28.3293 17.656 33.7947C29.6752 39.2601 23.3362 8.81009 23.3362 8.81009L9.52584 8.25415C9.52584 8.25415 2.07268 11.1524 0.958496 16.396Z" fill="#355389"/>
<path d="M28.1908 41.2654C35.1726 41.2654 40.8325 33.8253 40.8325 24.6475C40.8325 15.4696 35.1726 8.02954 28.1908 8.02954C21.2091 8.02954 15.5493 15.4696 15.5493 24.6475C15.5493 33.8253 21.2091 41.2654 28.1908 41.2654Z" fill="#F47458"/>
<path d="M34.0042 9.89478C36.096 12.8599 37.3771 16.8275 37.3771 21.1901C37.3771 30.3679 31.7182 37.808 24.7356 37.808C22.6531 37.7928 20.6249 37.1421 18.9219 35.9427C21.2292 39.2146 24.5261 41.2653 28.1904 41.2653C35.173 41.2653 40.829 33.8252 40.829 24.6474C40.829 18.228 38.0602 12.6624 34.0042 9.89478Z" fill="#B75742"/>
<path d="M0.958496 56.5434C0.958496 56.5434 5.63684 68.4767 17.656 73.9421C29.6752 79.4074 23.3362 48.9605 23.3362 48.9605L9.52584 48.4045C9.52584 48.4045 2.07268 51.3028 0.958496 56.5434Z" fill="#355389"/>
<path d="M28.1908 81.4158C35.1726 81.4158 40.8325 73.9757 40.8325 64.7979C40.8325 55.62 35.1726 48.1799 28.1908 48.1799C21.2091 48.1799 15.5493 55.62 15.5493 64.7979C15.5493 73.9757 21.2091 81.4158 28.1908 81.4158Z" fill="#F47458"/>
<path d="M34.0042 50.0452C36.096 53.0103 37.3771 56.9779 37.3771 61.3405C37.3771 70.5183 31.7182 77.9584 24.7356 77.9584C22.6534 77.9417 20.6256 77.2911 18.9219 76.0931C21.2292 79.365 24.5261 81.4157 28.1904 81.4157C35.173 81.4157 40.829 73.9756 40.829 64.7978C40.829 58.3784 38.0602 52.8128 34.0042 50.0452Z" fill="#B75742"/>
<path d="M0.958496 96.6939C0.958496 96.6939 5.63684 108.627 17.656 114.093C29.6752 119.558 23.3362 89.111 23.3362 89.111L9.52584 88.552C9.52584 88.552 2.07268 91.4533 0.958496 96.6939Z" fill="#355389"/>
<path d="M28.1908 121.563C35.1726 121.563 40.8325 114.123 40.8325 104.945C40.8325 95.7672 35.1726 88.3271 28.1908 88.3271C21.2091 88.3271 15.5493 95.7672 15.5493 104.945C15.5493 114.123 21.2091 121.563 28.1908 121.563Z" fill="#50BFA5"/>
<path d="M34.0042 90.1926C36.096 93.1577 37.3771 97.1254 37.3771 101.491C37.3771 110.666 31.7182 118.106 24.7356 118.106C22.6537 118.09 20.6259 117.441 18.9219 116.244C21.2292 119.516 24.5261 121.563 28.1904 121.563C35.173 121.563 40.829 114.123 40.829 104.948C40.829 98.5259 38.0602 92.9603 34.0042 90.1926Z" fill="#3C8F7C"/>
<path d="M0.958496 16.3962C0.958496 16.3962 2.51593 10.147 15.9924 9.92822C36.4878 9.591 41.2755 36.5746 41.2755 36.5746C41.2755 36.5746 48.1821 14.6037 37.8236 7.80161C27.4651 0.999503 2.62825 3.12309 0.958496 16.3962Z" fill="#466EB6"/>
<path d="M0.958496 56.5433C0.958496 56.5433 2.51593 50.2972 15.9924 50.0754C36.4878 49.7412 41.2755 76.7309 41.2755 76.7309C41.2755 76.7309 48.1821 54.76 37.8236 47.9579C27.4651 41.1558 2.62825 43.2733 0.958496 56.5433Z" fill="#466EB6"/>
<path d="M0.958496 96.6938C0.958496 96.6938 2.51593 90.4446 15.9924 90.2258C36.4878 89.8916 41.2755 116.881 41.2755 116.881C41.2755 116.881 48.1821 94.9104 37.8236 88.1053C27.4651 81.3001 2.62825 83.4237 0.958496 96.6938Z" fill="#466EB6"/>
</svg>
