<svg width="131" height="46" viewBox="0 0 131 46" fill="none" xmlns="http://www.w3.org/2000/svg">
<path d="M62.6925 9.87553C76.6325 13.9291 95.6256 13.5413 93.2277 21.938C90.8297 30.3347 93.2277 42.2731 81.9069 42.2731C70.5862 42.2731 60.2946 48.8239 53.7749 33.6592C47.2552 18.4945 49.6583 6.08048 62.6925 9.87553Z" fill="#463A51"/>
<path d="M71.8976 1.84449C69.7413 -2.76758 68.3756 15.2912 71.8976 16.2342C75.4196 17.1771 75.8458 9.66452 79.0547 9.32118C82.2635 8.97784 73.5097 5.29329 71.8976 1.84449Z" fill="#463A51"/>
<path d="M36.3661 6.83491C14.0046 12.5933 11.5862 33.2064 21.6813 37.1803C31.7764 41.1542 42.6073 47.9483 57.292 44.441C71.9767 40.9337 74.5443 30.4836 67.5826 22.5306C60.621 14.5776 42.0568 5.37353 36.3661 6.83491Z" fill="#594B64"/>
<path d="M30.9079 0.706543C32.0023 5.90965 36.1959 16.5199 30.9079 16.1118C25.6198 15.7037 21.7842 11.3372 21.9683 8.41431C22.1524 5.49139 25.4868 0.706548 27.7371 2.3695C29.9873 4.03246 30.9079 0.706543 30.9079 0.706543Z" fill="#463A51"/>
<path d="M8.75834 11.07C13.8638 10.2784 8.66642 13.9226 8.66642 13.9226C8.66642 13.9226 8.47757 18.4817 9.03406 19.0368C9.59055 19.5919 13.343 20.2293 13.292 23.5393C13.2409 26.8494 13.2358 39.4422 11.8522 40.5884C10.4686 41.7346 3.17301 41.6163 1.48822 40.2388C-0.196571 38.8613 -0.518256 22.3007 0.870421 20.9283C2.2591 19.556 4.79142 20.1162 4.91905 18.6873C4.95242 17.0338 4.8962 15.3798 4.7506 13.7325C4.7506 13.7325 -0.145552 10.7153 4.64334 10.9312C6.84378 11.0289 8.75834 11.07 8.75834 11.07Z" fill="#295644"/>
<path d="M100.176 23.3985L94.6487 25.6914C94.6487 25.6914 93.8678 19.2993 92.8866 18.3314C92.5837 18.0279 92.2646 17.7411 91.9311 17.4722L89.9019 21.3903L84.7646 20.2257L81.6823 22.6842L82.196 24.9668L78.2146 30.5774L75.5176 31.2399L80.9117 32.6477L82.9666 36.5296L87.0097 32.2595L85.4068 39.1175H87.4617C87.4617 39.1175 87.847 41.4466 88.4891 41.7054C89.1313 41.9642 95.296 43.4445 95.9381 43.6722C96.5803 43.9 110.965 39.3763 111.992 39.6351C113.019 39.8939 123.422 40.8255 123.551 40.1527C123.679 39.4798 131 39.5057 131 39.5057C131 39.5057 126.762 35.1166 126.119 34.9147C125.477 34.7129 112.049 31.7213 112.049 31.7213L108.329 26.9543C108.329 26.9543 103.582 27.9377 103.387 27.3425C103.192 26.7473 100.176 23.3985 100.176 23.3985Z" fill="#C7C0CE"/>
<path d="M15.4305 25.0336C12.7763 24.6464 15.2665 26.8405 15.2665 26.8405C15.2665 26.8405 15.8353 29.871 15.328 30.2169C14.8207 30.5628 11.2288 30.8519 10.9623 31.8844C9.61982 37.3465 10.9623 43.2422 12.1716 44.0166C13.3808 44.791 20.1958 45.3073 21.5793 44.1973C23.178 42.9221 24.6537 32.7982 23.4444 31.8844C22.2352 30.9707 19.0737 31.0068 19.0071 30.0827C19.0242 29.0148 19.1236 27.9498 19.3042 26.8973C19.3042 26.8973 21.3538 24.9975 19.4784 25.1007C18.4075 25.1575 17.4288 25.1524 16.732 25.1369C16.2965 25.1283 15.8619 25.0939 15.4305 25.0336Z" fill="#4C3A29"/>
</svg>
