<svg width="202" height="238" viewBox="0 0 202 238" fill="none" xmlns="http://www.w3.org/2000/svg">
<g clip-path="url(#clip0_176_658)">
<path d="M201.885 118.893C200.961 107.438 195.6 96.7849 186.929 89.1751C184.093 86.6815 180.927 84.5843 177.52 82.942C178.255 79.1803 178.489 75.3388 178.214 71.5165C177.237 59.4731 171.599 48.2742 162.483 40.2719C153.94 32.7944 144.257 29.7628 133.459 29.0501C130.916 22.0389 126.639 15.7757 121.019 10.8372C111.542 2.56792 100.572 0 88.2924 0C64.7126 0 46.669 23.5183 47.3411 45.5774C42.3301 49.0239 38.0615 53.4284 34.7853 58.533C31.5091 63.6376 29.291 69.3399 28.2609 75.3061C21.1056 78.1775 14.8096 82.82 9.97227 88.7915C5.13495 94.763 1.91738 101.865 0.62588 109.421C-0.665616 116.977 0.0119783 124.735 2.59414 131.957C5.17629 139.179 9.57706 145.625 15.3774 150.68L25.1169 157.173C32.4381 160.755 40.5935 162.317 48.7308 161.698L60.2017 159.3C62.1753 158.596 64.1008 157.764 65.9657 156.811C66.558 157.377 67.1048 157.943 67.7655 158.463L79.4415 166.246C88.2216 170.555 98.0049 172.445 107.771 171.721L121.543 168.836C126.859 166.967 131.854 164.296 136.352 160.918C143.824 164.854 152.072 166.223 161.025 166.223C185.243 166.257 203.628 141.449 201.885 118.893Z" fill="#8CB347"/>
<path d="M94.0684 238L105.46 124.877H110.016L121.407 238H94.0684Z" fill="#603E2A"/>
<path d="M105.517 160.386L126.784 145.94L128.117 147.275L113.57 168.384L105.517 160.386Z" fill="#603E2A"/>
<path d="M105.517 193.271L90.9702 172.162L92.3144 170.827L113.57 185.273L105.517 193.271Z" fill="#603E2A"/>
</g>
<defs>
<clipPath id="clip0_176_658">
<rect width="202" height="238" fill="white"/>
</clipPath>
</defs>
</svg>
